<svg id="icons" enable-background="new 0 0 64 64" height="512" viewBox="0 0 64 64" width="512" xmlns="http://www.w3.org/2000/svg"><path d="m43.505 12v1c0 1.66-1.35 3-3.01 3h-3-7v-4z" fill="#545c66"/><path d="m43.505 8h-13.01v4 4h-7v-11.01c0-2.21 1.79-4 4-4h12.01v.01c2.21 0 4 1.78 4 4z" fill="#656d78"/><path d="m26.495 28v3c1.66 0 3 1.34 3 3v6.31c-.15 1.511-1.43 2.69-2.98 2.69-1.659 0-3-1.34-3-3h-.02v-12z" fill="#656d78"/><path d="m32.495 24v4h-3-3-3v-4z" fill="#e6e9ed"/><path d="m29.495 40.31v-6.31c0-1.66-1.34-3-3-3v-3h3 3v-4h-9-1c-1.11 0-2-.89-2-2v-4c0-1.1.89-2 2-2h1 7 7v43.01c0 2.21-1.79 4-4 4s-4-1.79-4-4z" fill="#ed5565"/><path d="m33.496 64.007c-2.757 0-5-2.243-5-5 0-.553.447-1 1-1s1 .447 1 1c0 1.654 1.346 3 3 3s3-1.346 3-3c0-.553.447-1 1-1s1 .447 1 1c0 2.757-2.243 5-5 5z"/><path d="m29.496 60.007c-.553 0-1-.447-1-1v-25.007c0-.553.447-1 1-1s1 .447 1 1v25.007c0 .553-.447 1-1 1z"/><path d="m37.496 60.007c-.553 0-1-.447-1-1v-43.003c0-.553.447-1 1-1s1 .447 1 1v43.003c0 .553-.447 1-1 1z"/><path d="m29.496 35c-.553 0-1-.447-1-1 0-1.104-.899-2.003-2.004-2.003-.553 0-1-.447-1-1s.447-1 1-1c2.208 0 4.004 1.796 4.004 4.003 0 .553-.447 1-1 1z"/><path d="m26.496 32.001c-.553 0-1-.447-1-1v-2.999c0-.553.447-1 1-1s1 .447 1 1v2.999c0 .553-.447 1-1 1z"/><path d="m32.496 29.002h-9c-.553 0-1-.447-1-1s.447-1 1-1h9c.553 0 1 .447 1 1s-.447 1-1 1z"/><path d="m32.496 25h-10.002c-.553 0-1-.447-1-1s.447-1 1-1h10.002c.553 0 1 .447 1 1s-.447 1-1 1z"/><path d="m32.496 29.002c-.553 0-1-.447-1-1v-4.002c0-.553.447-1 1-1s1 .447 1 1v4.002c0 .553-.447 1-1 1z"/><path d="m22.496 25c-1.654 0-3-1.346-3-3 0-.553.447-1 1-1s1 .447 1 1c0 .552.448 1 1 1 .553 0 1 .447 1 1s-.447 1-1 1z"/><path d="m20.496 19c-.553 0-1-.447-1-1 0-1.653 1.345-2.999 2.998-2.999.553 0 1 .447 1 1s-.447 1-1 1c-.551 0-.998.448-.998.999 0 .553-.447 1-1 1z"/><path d="m40.498 17.001h-18.004c-.553 0-1-.447-1-1s.447-1 1-1h18.004c.553 0 1 .447 1 1s-.447 1-1 1z"/><path d="m26.512 44c-2.206 0-4-1.794-4-4 0-.553.447-1 1-1s1 .447 1 1c0 1.103.897 2 2 2s2-.897 2-2c0-.553.447-1 1-1s1 .447 1 1c0 2.206-1.794 4-4 4z"/><path d="m23.496 41c-.553 0-1-.447-1-1v-16c0-.553.447-1 1-1s1 .447 1 1v16c0 .553-.447 1-1 1z"/><path d="m23.496 17.001c-.553 0-1-.447-1-1v-11.008c0-.553.447-1 1-1s1 .447 1 1v11.008c0 .553-.447 1-1 1z"/><path d="m30.498 17.001c-.553 0-1-.447-1-1v-8.002c0-.553.447-1 1-1s1 .447 1 1v8.002c0 .553-.447 1-1 1z"/><path d="m23.496 5.993c-.553 0-1-.447-1-1 0-2.757 2.243-5 5-5 .553 0 1 .447 1 1s-.447 1-1 1c-1.654 0-3 1.346-3 3 0 .553-.447 1-1 1z"/><path d="m43.504 5.995c-.553 0-1-.447-1-1 0-1.654-1.346-3-3-3-.553 0-1-.447-1-1s.447-1 1-1c2.757 0 5 2.243 5 5 0 .553-.447 1-1 1z"/><path d="m43.502 13h-13.004c-.553 0-1-.447-1-1s.447-1 1-1h13.004c.553 0 1 .447 1 1s-.447 1-1 1z"/><path d="m43.502 8.999h-13.004c-.553 0-1-.447-1-1s.447-1 1-1h13.004c.553 0 1 .447 1 1s-.447 1-1 1z"/><path d="m39.504 1.993h-12.008c-.553 0-1-.447-1-1s.447-1 1-1h12.008c.553 0 1 .447 1 1s-.447 1-1 1z"/><path d="m43.504 8.999c-.553 0-1-.447-1-1v-3.004c0-.553.447-1 1-1s1 .447 1 1v3.004c0 .553-.447 1-1 1z"/><path d="m20.496 23c-.553 0-1-.447-1-1v-4c0-.553.447-1 1-1s1 .447 1 1v4c0 .553-.447 1-1 1z"/><path d="m40.498 17.004c-.553 0-1-.447-1-1s.447-1 1-1c1.104 0 2.004-.898 2.004-2.003 0-.553.447-1 1-1s1 .447 1 1c0 2.207-1.796 4.003-4.004 4.003z"/><path d="m43.502 14.001c-.553 0-1-.447-1-1v-1.001c0-.553.447-1 1-1s1 .447 1 1v1.001c0 .553-.447 1-1 1z"/><path d="m26.496 29.002c-.553 0-1-.447-1-1v-.995c0-.553.447-1 1-1s1 .447 1 1v.995c0 .553-.447 1-1 1z"/><path d="m29.496 29.002c-.553 0-1-.447-1-1v-.995c0-.553.447-1 1-1s1 .447 1 1v.995c0 .553-.447 1-1 1z"/><path d="m33.496 54.005c-.553 0-1-.447-1-1v-20c0-.553.447-1 1-1s1 .447 1 1v20c0 .553-.447 1-1 1z"/><path d="m33.526 60.007c-.553 0-1.005-.447-1.005-1s.442-1 .994-1h.011c.552 0 1 .447 1 1s-.448 1-1 1z"/></svg>