<svg id="Capa_1" enable-background="new 0 0 511.969 511.969" height="512" viewBox="0 0 511.969 511.969" width="512" xmlns="http://www.w3.org/2000/svg"><g><g><path d="m476.539 92.478 26.617-46.705c2.2-3.861 1.547-8.716-1.595-11.858l-23.534-23.535c-3.142-3.142-7.998-3.795-11.858-1.595l-46.705 26.617c-7.017 3.999-10.888 11.871-9.77 19.87l1.321 9.453c.857 6.129-1.212 12.304-5.588 16.68l-187.925 187.925 25.109 25.109 187.925-187.925c4.376-4.376 10.552-6.445 16.68-5.588l9.453 1.321c7.999 1.119 15.871-2.752 19.87-9.769z" fill="#e9edf1"/><path d="m503.16 45.771-26.62 46.71c-4 7.01-11.87 10.88-19.87 9.77l-9.45-1.32c-6.13-.86-12.31 1.21-16.68 5.58l-187.93 187.93-25.11-25.11.5-.5 11.61 11.61 187.93-187.93c4.37-4.37 10.55-6.44 16.68-5.58l9.45 1.32c8 1.11 15.87-2.76 19.87-9.77l26.62-46.71c1.56-2.75 1.68-5.99.49-8.77l10.91 10.91c3.14 3.15 3.8 8 1.6 11.86z" fill="#dce6eb"/><path d="m164.728 274.537h78.909v66.442h-78.909z" fill="#5fa7ee" transform="matrix(.707 .707 -.707 .707 277.422 -54.239)"/><path d="m191.361 317.554h66.44v21.213h-66.44z" fill="#518fcc" transform="matrix(.707 -.707 .707 .707 -166.267 254.919)"/><path d="m187.095 262.075 62.772 62.772c8.86 8.86 23.224 8.86 32.083 0 8.86-8.86 8.86-23.224 0-32.083l-62.772-62.772c-8.86-8.86-23.224-8.86-32.083 0-8.86 8.859-8.86 23.223 0 32.083z" fill="#6cbff8"/><path d="m288.591 308.811c0 5.8-2.21 11.61-6.64 16.04-8.86 8.85-23.22 8.85-32.08 0l-7.01-7.01c7.57 2.04 16.01.09 21.96-5.86l4.26-4.27c5.95-5.95 7.9-14.38 5.86-21.96l7.01 7.01c4.429 4.43 6.64 10.24 6.64 16.05z" fill="#5fa7ee"/><path d="m223.363 355.535-66.956-66.956c-7.704-7.704-20.195-7.704-27.899 0l-20.924 20.924-39.716 54.751-41.887 26.852-6.975 6.975c-15.408 15.408-15.408 40.389 0 55.797l39.058 39.058c15.408 15.408 40.389 15.408 55.797 0l6.975-6.975 39.013-56.015 42.59-25.588 20.924-20.924c7.704-7.705 7.704-20.195 0-27.899z" fill="#6cbff8"/><g fill="#5fa7ee"><path d="m223.36 383.431-109.5 109.5c-15.41 15.41-40.39 15.41-55.8 0l-15-15c15.41 15.41 40.39 15.41 55.8 0l109.5-109.5c7.71-7.7 7.71-20.19 0-27.9l15 15c7.711 7.71 7.711 20.2 0 27.9z"/><path d="m25.981 391.105 81.603-81.603 13.949 13.949c7.704 7.704 7.704 20.195 0 27.899l-53.705 53.705c-7.704 7.704-20.195 7.704-27.899 0z"/><path d="m120.836 485.961 36.206-53.924 45.397-27.68-13.949-13.949c-7.704-7.704-20.195-7.704-27.899 0l-53.705 53.705c-7.704 7.704-7.704 20.195 0 27.899z"/></g><path d="m202.44 404.361-81.6 81.6-13.95-13.95c-.35-.35-.69-.72-1.01-1.09l81.52-81.52c.37.32.74.66 1.09 1.01z" fill="#518fcc"/></g><path d="m506.865 28.611-23.535-23.533c-5.516-5.517-14.099-6.672-20.876-2.809l-46.705 26.617c-9.743 5.553-15.036 16.317-13.483 27.424l1.321 9.454c.528 3.776-.767 7.641-3.464 10.338l-26.961 26.962c-2.929 2.929-2.929 7.677.001 10.606 2.928 2.928 7.677 2.929 10.606-.001l26.96-26.961c6.006-6.005 8.89-14.611 7.713-23.021l-1.321-9.453c-.697-4.988 1.68-9.822 6.056-12.315l46.704-26.617c.923-.525 2.092-.369 2.842.383l23.535 23.534c.751.751.908 1.919.383 2.841l-26.617 46.705c-2.495 4.376-7.334 6.76-12.316 6.056l-9.452-1.321c-8.411-1.181-17.019 1.706-23.022 7.712l-162.116 162.112-14.501-14.501 110.304-110.304c2.929-2.93 2.929-7.678 0-10.607-2.93-2.928-7.678-2.928-10.607 0l-110.304 110.304-13.528-13.528c-11.771-11.77-30.922-11.769-42.69.001-11.156 11.158-11.729 28.943-1.733 40.791l-18.072 18.072-.277-.277c-10.615-10.612-27.888-10.614-38.505 0l-109.503 109.502c-19.938 19.727-17.523 52.218 3.655 70.059 2.93 2.928 7.677 2.928 10.607 0 2.929-2.93 2.929-7.678 0-10.607-15.957-12.685-17.674-36.878-1.984-50.516l8.646 8.646c5.143 5.143 11.98 7.975 19.253 7.975s14.11-2.833 19.253-7.975l53.705-53.704c10.563-10.134 10.562-28.372 0-38.505l-8.646-8.647 15.62-15.62c4.77-4.767 12.526-4.769 17.292 0l66.957 66.956c4.767 4.768 4.767 12.525 0 17.292l-15.621 15.621-8.646-8.645c-10.134-10.563-28.371-10.564-38.506-.001l-53.703 53.705c-10.563 10.134-10.564 28.371-.001 38.506l8.646 8.646c-12.193 13.845-33.792 14.841-46.861 1.67l-10.655-10.655c-2.93-2.928-7.678-2.928-10.607 0-2.929 2.93-2.929 7.678 0 10.607l10.655 10.655c18.308 18.307 48.095 18.305 66.404 0l35.644-35.644c2.929-2.93 2.929-7.678 0-10.607-2.93-2.928-7.678-2.928-10.607 0l-23.365 23.365-8.646-8.646c-4.744-4.55-4.744-12.742 0-17.291l53.704-53.705c4.552-4.745 12.741-4.744 17.292 0l8.646 8.645-22.783 22.783c-2.929 2.93-2.929 7.678 0 10.607 2.93 2.928 7.678 2.928 10.607 0l49.01-49.011c10.722-10.705 10.588-28.226-.276-38.781l18.071-18.071c5.599 4.724 12.52 7.093 19.447 7.093 7.729 0 15.461-2.942 21.346-8.826 11.77-11.77 11.77-30.921 0-42.69l-13.528-13.528 162.113-162.116c2.696-2.696 6.567-3.99 10.338-3.463l9.453 1.321c11.103 1.55 21.87-3.74 27.425-13.483l26.617-46.706c3.861-6.777 2.706-15.361-2.808-20.875zm-390.634 300.145c4.743 4.55 4.743 12.74-.001 17.291l-53.705 53.705c-2.309 2.309-5.379 3.581-8.646 3.581-3.266 0-6.337-1.272-8.646-3.582l-8.646-8.646 70.996-70.997zm164.864-19.95c0 4.056-1.58 7.869-4.447 10.737-5.924 5.922-15.558 5.921-21.478.001-2.323-2.323-12.492-12.493-15.011-15.012-2.929-2.929-7.678-2.93-10.606-.001-2.93 2.929-2.93 7.678-.001 10.606l6.22 6.221-17.989 17.989-45.19-45.189 17.99-17.99 14.221 14.22c2.928 2.928 7.677 2.929 10.606-.001 2.929-2.929 2.929-7.678-.001-10.606l-23.011-23.011c-5.922-5.921-5.921-15.556 0-21.477 5.653-5.892 15.823-5.891 21.476 0l62.772 62.772c2.869 2.87 4.449 6.684 4.449 10.741z"/></g></svg>