<?xml version="1.0" encoding="iso-8859-1"?>
<!-- Generator: Adobe Illustrator 19.0.0, SVG Export Plug-In . SVG Version: 6.00 Build 0)  -->
<svg version="1.1" id="Capa_1" xmlns="http://www.w3.org/2000/svg" xmlns:xlink="http://www.w3.org/1999/xlink" x="0px" y="0px"
	 viewBox="0 0 511.99 511.99" style="enable-background:new 0 0 511.99 511.99;" xml:space="preserve">
<g>
	<g transform="translate(1 1)">
		<path style="fill:#D84315;" d="M351.156,57.029l-11.093,16.213l-43.264,81.493c-5.035,10.155-10.837,21.76-17.749,34.816
			C251.658,241.69,117.855,368.24,92.596,405.53c-25.259,37.205-5.461,66.987-20.651,89.259
			c-9.045,13.397-32.256,1.621-49.493-9.984l-0.085-0.085c-0.264-0.227-0.55-0.427-0.853-0.597c-2.336-1.601-4.484-3.461-6.4-5.547
			c-6.736-5.709-9.131-15.05-5.973-23.296c24.491-43.264,102.571-178.091,154.112-224.683c44.8-40.448,58.283-96.512,62.379-124.331
			l54.272-73.813l9.131-13.483c6.973-10.171,20.85-12.801,31.061-5.888l3.413,2.304c0.023-0.001,0.045,0.008,0.061,0.024
			c0.016,0.016,0.025,0.038,0.024,0.061l22.528,15.275c2.954,2.004,5.266,4.819,6.656,8.107
			C355.414,44.785,354.801,51.657,351.156,57.029z"/>
		<path style="fill:#FF5722;" d="M328.543,41.669L317.45,57.882l-43.264,81.493c-5.035,10.155-10.837,21.76-17.749,34.816
			C229.044,226.33,95.242,352.88,69.983,390.17c-25.259,37.205-5.461,66.987-20.651,89.259c-6.571,9.728-20.48,6.229-34.219-0.853
			c-6.736-5.709-9.131-15.05-5.973-23.296c24.491-43.264,102.571-178.091,154.112-224.683c44.8-40.448,58.283-96.512,62.379-124.331
			l54.272-73.813l9.131-13.483c6.973-10.171,20.85-12.801,31.061-5.888l3.413,2.304c0.023-0.001,0.045,0.008,0.061,0.024
			c0.016,0.016,0.025,0.038,0.024,0.061c2.926,1.975,5.21,4.764,6.571,8.021C332.801,29.425,332.188,36.297,328.543,41.669z"/>
		<path style="fill:#CFD8DC;" d="M492.212,114.117l-50.688-11.093L363.53,85.957c-4.731-1.097-9.216-3.064-13.227-5.803
			l-92.587-62.805c-2.895-1.975-6.457-2.717-9.9-2.06s-6.482,2.657-8.447,5.559l-35.755,52.736
			c-1.992,2.905-2.743,6.484-2.086,9.944c0.657,3.46,2.667,6.515,5.585,8.488l11.435,7.765c3.299,2.219,6.163,5.024,8.448,8.277
			l12.544,17.664c10.659,15.011,27.067,24.93,45.312,27.392l15.445,2.048c34.816,7.68,30.891,36.949,37.973,73.728
			c1.665,8.214,4.943,16.016,9.643,22.955c8.646,12.243,19.712,22.582,32.512,30.379c4.508,2.874,10.11,3.443,15.104,1.536
			c13.397-5.12,41.472-20.395,70.913-63.829c18.909-27.459,31.231-58.908,36.01-91.904
			C502.943,121.497,498.593,115.587,492.212,114.117z"/>
		<path style="fill:#C52828;" d="M502.452,128.026c-4.779,32.996-17.102,64.445-36.011,91.904
			c-29.44,43.435-57.515,58.709-70.912,63.829c-4.994,1.907-10.596,1.338-15.104-1.536c-3.982-2.495-7.828-5.201-11.52-8.107
			c-8.101-6.3-15.182-13.813-20.992-22.272l2.901-0.085c70.656-62.549,88.064-120.747,90.709-148.736l34.731,7.595l15.957,3.499
			C498.593,115.587,502.943,121.497,502.452,128.026z"/>
		<path style="fill:#F44335;" d="M477.791,117.872c-4.779,32.996-17.101,64.445-36.011,91.904
			c-29.44,43.435-57.515,58.709-70.912,63.829c-0.631,0.25-1.29,0.422-1.963,0.512c-8.101-6.3-15.182-13.813-20.992-22.272
			l2.901-0.085c70.656-62.549,88.064-120.747,90.709-148.736l34.731,7.595C477.405,112.856,477.935,115.36,477.791,117.872z"/>
	</g>
	<path d="M17.661,492.14c17.796,12.175,31.967,18.154,43.088,18.154c1.729,0.005,3.454-0.152,5.154-0.467
		c5.766-1.028,10.866-4.357,14.129-9.221c6.607-11.62,9.403-25.02,7.996-38.313c-1.642-17.936,2.807-35.903,12.629-51
		c21.385-26.692,44.17-52.232,68.258-76.513c47.704-50.662,101.775-108.079,118.671-140.262
		c5.639-10.655,10.555-20.344,14.933-29.09c18.465,5.305,21.282,18.217,25.109,45.423c0.921,6.542,1.896,13.467,3.283,20.671
		c5.771,30.008,31.283,49.808,45.979,58.937c4.093,2.574,8.827,3.947,13.662,3.962c3.104-0.002,6.18-0.577,9.075-1.696
		c14.863-5.725,44.35-22.042,74.858-67.017c19.808-28.655,32.63-61.552,37.438-96.054c0.843-10.758-6.335-20.504-16.858-22.892
		L366.469,78.636c-3.697-0.873-7.204-2.415-10.346-4.55l-3.147-2.134l6.214-9.161c4.085-6.019,5.612-13.415,4.242-20.56
		s-5.521-13.453-11.543-17.536L325.848,7.031c-14.103-9.568-33.29-5.919-42.896,8.158l-4.303,6.346l-15.143-10.271h-0.004
		c-9.951-6.724-23.467-4.132-30.225,5.796L197.515,69.79c-6.738,9.957-4.145,23.489,5.796,30.25l11.479,7.783
		c0.962,0.678,1.875,1.424,2.731,2.232c-4.754,28.946-18.604,78.763-58.968,115.226C107.519,271.377,32.585,399.248,2.706,452.144
		C-4.102,464.415,2.319,481.607,17.661,492.14z M494.906,128.356c-4.649,31.514-16.468,61.542-34.546,87.771
		c-27.895,41.129-53.867,55.667-66.867,60.675c-2.522,0.94-5.339,0.629-7.596-0.837c-9.05-5.646-17.22-12.595-24.244-20.623
		c65.491-59.61,83.358-113.439,88.059-141.026l41.56,9.091C493.542,123.931,495.086,126.035,494.906,128.356z M297.077,24.769
		c4.308-6.289,12.892-7.905,19.191-3.612l26.042,17.663c2.275,1.541,3.844,3.923,4.361,6.622c0.517,2.699-0.061,5.493-1.607,7.765
		l-6.215,9.163l-46.078-31.254L297.077,24.769z M212.894,85.915c-1.034-0.701-1.748-1.784-1.983-3.011
		c-0.235-1.227,0.027-2.497,0.729-3.531l35.758-52.729c1.458-2.148,4.379-2.709,6.529-1.254h-0.004l22.026,14.94
		c0.063,0.045,0.093,0.117,0.157,0.16c0.065,0.044,0.142,0.045,0.207,0.087l59.832,40.583c0.065,0.046,0.094,0.119,0.16,0.164
		c0.086,0.058,0.185,0.076,0.272,0.13l9.957,6.753c4.901,3.324,10.371,5.721,16.138,7.071l70.329,15.383
		c-3.778,22.375-19.234,73.32-80.886,130.25c-2.034-3.989-3.529-8.23-4.447-12.612c-1.329-6.908-2.258-13.55-3.142-19.821
		c-3.846-27.354-7.484-53.192-42.121-60.762l-15.404-2.058c-15.894-2.146-30.188-10.784-39.48-23.858l-12.542-17.7
		c-0.399-0.565-0.91-1.026-1.335-1.568c-0.258-0.356-0.543-0.692-0.854-1.003c-2.429-2.99-5.264-5.625-8.423-7.829L212.894,85.915z
		 M17.598,460.481c22.971-40.658,101.838-176.871,152.396-222.533c31.093-29.43,52.478-67.638,61.302-109.532l2.302,3.248
		c12.036,16.937,30.554,28.128,51.146,30.908l0.102,0.014c-3.715,7.371-7.784,15.335-12.356,23.974
		c-15.825,30.137-71.371,89.125-116,136.521c-24.767,24.885-48.123,51.135-69.958,78.629
		c-11.764,17.933-17.241,39.264-15.571,60.646c1.247,9.848-0.515,19.843-5.054,28.671c-0.712,1.113-1.878,1.857-3.188,2.033
		c-3.158,0.596-12.967,0.35-35.408-14.996C19.002,472.361,15.54,464.19,17.598,460.481z"/>
</g>
<g>
</g>
<g>
</g>
<g>
</g>
<g>
</g>
<g>
</g>
<g>
</g>
<g>
</g>
<g>
</g>
<g>
</g>
<g>
</g>
<g>
</g>
<g>
</g>
<g>
</g>
<g>
</g>
<g>
</g>
</svg>
