<svg height="512pt" viewBox="0 0 512 512.00013" width="512pt" xmlns="http://www.w3.org/2000/svg"><path d="m511.386719 210.171875c-.597657-18.472656-4.472657-11.0625-154.152344-164.21875-7.023437-7.023437-17.664063 3.589844-10.628906 10.625 150.734375 152.28125 149.484375 145.613281 149.761719 154.085937-.308594 14.816407 2.835937 21.085938-2.710938 26.632813l-24.019531 24.019531c-5.546875 5.550782-11.808594 2.402344-26.636719 2.710938-8.46875-.273438 1.457031 4.210937-191.71875-187.398438-2.042969-2.039062-3.214844-4.75-3.308594-7.628906.304688-14.820312-2.835937-21.089844 2.710938-26.636719 22.839844-21.390625 24.074218-27.582031 32.386718-27.328125 15.535157 1.214844 20.8125-1.179687 25.898438 3.902344l16.386719 16.386719c7.023437 7.027343 17.660156-3.589844 10.625-10.625l-16.382813-16.386719c-10.824218-10.820312-23.28125-6.847656-36.035156-8.296875-17.851562-.574219-23.742188 14.316406-43.507812 31.722656-11.695313 11.699219-6.375 25.746094-7.101563 37.75.566406 17.441407 12.695313 19.980469 56.472656 66.539063l-14.886719 14.886718-16.273437-4.847656c-25.730469-7.660156-43.433594 26.472656-21.796875 42.917969l-22.515625 22.515625-16.273437-4.847656c-25.945313-7.726563-43.261719 26.605468-21.796876 42.917968l-22.515624 22.515626-16.273438-4.847657c-25.902344-7.714843-43.363281 26.460938-21.789062 42.90625l-22.523438 22.523438-16.273438-4.84375c-26.1875-7.800781-43.535156 27.355469-21.25 43.320312-6.152343 7.191407-11.878906 14.804688-17.109374 22.753907-.316407-.03125-9.390626-3.660157-19.304688 1.664062-15.828125 8.5-17.394531 30.695312-2.796875 41.335938-5.1875 13.441406-6.675781 20.511718-15.167969 48.578124-4.652344 15.679688 9.972656 30.296876 25.648438 25.648438 21.609375-7.539062 55.316406-12.011719 96.136718-40.347656l17.117188 5.210937c24.691406 7.519531 42.511719-23.472656 23.933594-41.148437l23.109375-23.113282c15.011719 4.207032 17.480469 5.867188 23.242187 5.867188 23.433594 0 33.359375-29.851562 14.828125-43.9375l22.515625-22.515625c15.058594 4.226563 17.519532 5.875 23.285156 5.875 23.125 0 33.457032-29.695313 14.777344-43.9375l22.523438-22.523437 16.269531 4.847656c26.125 7.777344 43.160156-26.617188 21.792969-42.910156l22.523437-22.523438c15.601563 4.539062 16.84375 5.292969 20.484375 5.703125 32.820313 30.308594 36.449219 42.824219 53.445313 43.378906 12.285156-.726562 26.011719 4.628907 37.75-7.105469l24.019531-24.019531c11.699219-11.703125 6.382812-25.75 7.105469-37.753906zm-211.335938-63.519531 16.890625 16.890625-26.027344-7.75zm-277.800781 350.0625c-4.277344 1.269531-8.230469-2.703125-6.964844-6.964844 8.59375-28.4375 9.910156-34.777344 14.691406-47.203125l73.949219 22.519531c-33.125 20.28125-58.640625 23.945313-81.675781 31.648438zm127.238281-68.90625-17.953125-5.46875c-9.503906-2.890625-13.894531 11.480468-4.375 14.378906l22.496094 6.851562c11.921875 3.628907 6.453125 21.683594-5.496094 18.042969l-116.492187-35.480469c-7.953125-2.421874-9.097657-13.363281-1.714844-17.328124 6.105469-3.273438 5.347656-.292969 72.371094 19.132812 9.503906 2.898438 13.894531-11.480469 4.375-14.378906l-49.515625-15.078125c5.195312-7.550781 10.871094-14.75 16.960937-21.511719l100.304688 29.878906zm57.898438-25.640625c-143.835938-43.859375-142.640625-39.929688-146.152344-46.414063-3.960937-7.324218 2.898437-15.9375 10.988281-13.527344 143.832032 43.859376 142.640625 39.929688 146.152344 46.414063 3.984375 7.375-2.988281 15.914063-10.988281 13.527344zm2.390625-34.648438-100.621094-29.972656 21.257812-21.257813 100.621094 29.972657zm58.195312-25.9375c-144.089844-43.933593-142.675781-39.984375-146.152344-46.414062-3.953124-7.308594 2.882813-15.941407 10.988282-13.527344 144.089844 43.9375 142.671875 39.984375 146.148437 46.414063 4.023438 7.433593-3.019531 15.902343-10.984375 13.527343zm2.390625-34.648437-100.621093-29.972656 21.257812-21.257813 100.621094 29.972656zm58.195313-25.9375c-143.835938-43.855469-142.644532-39.925782-146.152344-46.414063-3.976562-7.347656 2.925781-15.925781 10.984375-13.527343 144.089844 43.9375 142.675781 39.984374 146.15625 46.417968 3.988281 7.378906-2.988281 15.910156-10.988281 13.523438zm2.390625-34.648438-100.621094-29.96875 21.257813-21.261718 100.621093 29.972656zm-82.355469-67.800781c-11.941406-3.558594-6.585938-21.640625 5.382812-18.078125l85.296876 25.410156 28.03125 28.027344zm0 0"/></svg>