<svg height="512" viewBox="0 0 64 64" width="512" xmlns="http://www.w3.org/2000/svg"><g id="Filled_outline" data-name="Filled outline"><path d="m50 54h-34l-11-7v-7h54v6z" fill="#4d5b4d"/><g fill="#98b398"><circle cx="32" cy="49" r="5"/><circle cx="44" cy="49" r="5"/><circle cx="20" cy="49" r="5"/><circle cx="11" cy="46" r="4"/><circle cx="53" cy="46" r="4"/><path d="m3 36h58v4h-58z"/></g><path d="m57 36h-51l5-6h46z" fill="#758975"/><path d="m48 30h-20l-4-6h28z" fill="#4d5b4d"/><path d="m52 24h-28l2-6h24z" fill="#98b398"/><path d="m32 14h12v4h-12z" fill="#758975"/><path d="m24 24-5-2 2-6 5 2z" fill="#758975"/><path d="m21 16-16-7-2 6 16 7z" fill="#394d5c"/><path d="m34 18h4v6h-4z" fill="#98d085"/><path d="m38 18h4v6h-4z" fill="#394d5c"/><circle cx="23" cy="32" fill="#98d085" r="2"/><circle cx="45" cy="32" fill="#98d085" r="2"/><circle cx="32" cy="49" r="2"/><circle cx="44" cy="49" r="2"/><circle cx="20" cy="49" r="2"/><path d="m10 45h2v2h-2z"/><path d="m52 45h2v2h-2z"/><path d="m61 35h-3v-5a1 1 0 0 0 -1-1h-1v-2h3v-2h-4a1 1 0 0 0 -1 1v3h-4.132l2.964-4.445a.992.992 0 0 0 .108-.869l-1.991-6a1 1 0 0 0 -.949-.686h-5v-3a1 1 0 0 0 -1-1h-12a1 1 0 0 0 -1 1v3h-2v-6h-2v6h-.807l-20.793-8.916a1 1 0 0 0 -1.35.6l-2 6a1 1 0 0 0 .55 1.232l11.662 5.1 2.394 7.984h-5.656a1 1 0 0 0 -.768.36l-4.7 5.64h-2.532a1 1 0 0 0 -1 1v4a1 1 0 0 0 1 1h1v6a1 1 0 0 0 .463.844l11 7a1 1 0 0 0 .537.156h34a1.006 1.006 0 0 0 .665-.252l9-8a1 1 0 0 0 .335-.748v-5h1a1 1 0 0 0 1-1v-4a1 1 0 0 0 -1-1zm-13.535-6h-18.93l-2.666-4h24.262zm-1.465 3a1 1 0 1 1 -1-1 1 1 0 0 1 1 1zm-27.256-3-2.079-6.93 6.676 2.744 2.791 4.186zm5.256 3a1 1 0 1 1 -1-1 1 1 0 0 1 1 1zm11-9v-4h2v4zm4 0v-4h2v4zm10.279-4 1.333 4h-7.612v-4zm-16.279-4h10v2h-10zm-6.279 4h6.279v4h-7.612zm-5.108-1.678 3.14 1.256-1.366 4.1-3.14-1.256zm-17.376-2.872 1.363-4.095 14.159 6.2-1.359 4.09zm7.231 16.55h8.716a2.966 2.966 0 0 0 -.184 1 3 3 0 0 0 6 0 2.966 2.966 0 0 0 -.184-1h16.368a2.966 2.966 0 0 0 -.184 1 3 3 0 0 0 6 0 2.966 2.966 0 0 0 -.184-1h8.184v4h-20v-2h-2v2h-2v-2h-2v2h-21.865zm-3.468 15a3 3 0 1 1 3 3 3 3 0 0 1 -3-3zm4.666 4.693a4.978 4.978 0 0 0 1.411-.782 5.947 5.947 0 0 0 .793 2.189zm7.334 2.307a4 4 0 1 1 4-4 4 4 0 0 1 -4 4zm12 0a4 4 0 1 1 4-4 4 4 0 0 1 -4 4zm12 0a4 4 0 1 1 4-4 4 4 0 0 1 -4 4zm5.62 0h-1.16a5.972 5.972 0 0 0 1.463-3.089 4.957 4.957 0 0 0 2.064.985zm5.531-4.917-.187.166a2.97 2.97 0 0 1 -1.964.751 3.014 3.014 0 1 1 2.151-.917zm2.849-2.532-.042.037a4.973 4.973 0 0 0 -9.769-.876 5.992 5.992 0 0 0 -8.649 8.288h-3.08a6 6 0 1 0 -8.92 0h-3.08a5.992 5.992 0 0 0 -8.649-8.288 4.989 4.989 0 0 0 -9.811 1.288 4.8 4.8 0 0 0 .049.482l-.049-.031v-5.451h52zm2-6.551h-56v-2h56z"/></g></svg>