<svg height="512pt" viewBox="0 -34 512.05458 512" width="512pt" xmlns="http://www.w3.org/2000/svg"><path d="m501.226562 213.378906-113.578124-196.269531c-3.050782-5.269531-8.675782-8.519531-14.765626-8.53125h-233.640624c-6.101563-.03125-11.746094 3.230469-14.761719 8.53125l-113.664063 196.269531c-3.074218 5.273438-3.074218 11.792969 0 17.066406l113.664063 196.265626c3.015625 5.300781 8.660156 8.566406 14.761719 8.535156h233.640624c6.089844-.011719 11.714844-3.265625 14.765626-8.535156l113.578124-196.265626c3.070313-5.273437 3.070313-11.792968 0-17.066406zm-245.25 110.933594c-4.28125.015625-8.558593-.269531-12.796874-.855469-51.195313-6.421875-89.605469-49.949219-89.605469-101.546875 0-51.59375 38.410156-95.121094 89.605469-101.546875 4.238281-.585937 8.515624-.871093 12.796874-.851562 56.554688 0 102.402344 45.84375 102.402344 102.398437 0 56.554688-45.847656 102.402344-102.402344 102.402344zm0 0" fill="#707070"/><path d="m475.625 213.378906-113.578125-196.269531c-3.050781-5.269531-8.671875-8.519531-14.761719-8.53125h-208.042968c-6.101563-.03125-11.746094 3.230469-14.761719 8.53125l-113.664063 196.269531c-3.074218 5.273438-3.074218 11.792969 0 17.066406l113.664063 196.265626c3.015625 5.300781 8.660156 8.566406 14.761719 8.535156h208.042968c6.089844-.011719 11.710938-3.265625 14.761719-8.535156l113.578125-196.265626c3.074219-5.273437 3.074219-11.792968 0-17.066406zm-219.648438 110.933594c-4.28125.015625-8.558593-.269531-12.796874-.855469-4.242188.585938-8.519532.871094-12.800782.855469-56.554687 0-102.402344-45.847656-102.402344-102.402344 0-56.554687 45.847657-102.398437 102.402344-102.398437 4.28125-.019531 8.558594.265625 12.800782.851562 4.238281-.585937 8.515624-.871093 12.796874-.851562 56.554688 0 102.402344 45.84375 102.402344 102.398437 0 56.554688-45.847656 102.402344-102.402344 102.402344zm0 0" fill="#9e9e9e"/><path d="m255.976562 85.378906c-4.273437-.019531-8.542968.179688-12.796874.597656-70.140626 6.605469-123.734376 65.488282-123.734376 135.933594 0 70.449219 53.59375 129.332032 123.734376 135.9375 4.253906.414063 8.523437.613282 12.796874.597656 75.40625 0 136.535157-61.128906 136.535157-136.535156s-61.128907-136.53125-136.535157-136.53125zm0 34.132813c56.554688 0 102.402344 45.84375 102.402344 102.398437 0 56.554688-45.847656 102.402344-102.402344 102.402344-4.28125.015625-8.558593-.269531-12.796874-.855469-51.195313-6.421875-89.605469-49.949219-89.605469-101.546875 0-51.59375 38.410156-95.121094 89.605469-101.546875 4.238281-.585937 8.515624-.871093 12.796874-.851562zm0 0" fill="#37474f"/><path d="m243.179688 85.976562c-70.140626 6.605469-123.734376 65.488282-123.734376 135.933594 0 70.449219 53.59375 129.332032 123.734376 135.9375 70.136718-6.605468 123.734374-65.488281 123.734374-135.9375 0-70.445312-53.597656-129.328125-123.734374-135.933594zm12.796874 238.335938c-4.28125.015625-8.558593-.269531-12.796874-.855469-4.183594.597657-8.449219-7.679687-12.800782-7.679687-56.492187 0-76.800781-37.375-76.800781-93.867188 0-56.488281 20.308594-93.867187 76.800781-93.867187 4.351563 0 8.617188-8.277344 12.800782-7.679688 4.238281-.585937 8.515624-.871093 12.796874-.851562 56.554688 0 102.402344 45.84375 102.402344 102.398437 0 56.554688-45.847656 102.402344-102.402344 102.402344zm0 0" fill="#607d8b"/><path d="m372.847656 443.777344-233.640625-.015625c-9.132812-.015625-17.566406-4.878907-22.152343-12.777344l-113.621094-196.265625c-4.578125-7.9375-4.578125-17.710938-.003906-25.648438l113.625-196.269531c4.585937-7.894531 13.023437-12.7578122 22.152343-12.7734372l233.640625.015625c9.132813.015625 17.570313 4.8789062 22.15625 12.7773432l113.617188 196.265626c4.578125 7.9375 4.578125 17.710937.003906 25.648437l-113.621094 196.269531c-4.585937 7.894532-13.023437 12.757813-22.15625 12.773438zm-233.640625-426.683594c-3.042969.003906-5.851562 1.628906-7.378906 4.257812l-113.625 196.269532c-1.527344 2.644531-1.523437 5.902344.003906 8.546875l113.617188 196.269531c1.527343 2.628906 4.339843 4.25 7.382812 4.257812l233.644531.015626c3.042969-.007813 5.855469-1.628907 7.386719-4.257813l113.617188-196.265625c1.527343-2.648438 1.527343-5.90625 0-8.550781l-113.613281-196.265625c-1.53125-2.632813-4.347657-4.253906-7.394532-4.261719zm0 0"/><path d="m134.199219 76.84375c-3.050781 0-5.871094-1.632812-7.390625-4.277344-1.523438-2.644531-1.515625-5.898437.015625-8.539062l14.847656-25.601563c1.527344-2.628906 4.339844-4.25 7.382813-4.25h38.65625c4.714843 0 8.535156 3.824219 8.535156 8.535157 0 4.714843-3.820313 8.535156-8.535156 8.535156h-33.738282l-12.382812 21.347656c-1.53125 2.632812-4.347656 4.253906-7.390625 4.25zm0 0"/><path d="m446.945312 264.578125c-3.050781-.003906-5.871093-1.632813-7.390624-4.277344-1.523438-2.644531-1.515626-5.902343.015624-8.539062l17.316407-29.851563-17.316407-29.847656c-2.367187-4.078125-.980468-9.300781 3.097657-11.667969 4.074219-2.363281 9.296875-.976562 11.664062 3.097657l19.796875 34.136718c1.535156 2.648438 1.535156 5.914063 0 8.566406l-19.796875 34.132813c-1.53125 2.632813-4.34375 4.25-7.386719 4.25zm0 0"/><path d="m187.710938 409.644531h-38.65625c-3.042969 0-5.855469-1.617187-7.382813-4.25l-14.847656-25.601562c-2.367188-4.074219-.980469-9.296875 3.097656-11.664063 4.078125-2.363281 9.300781-.976562 11.664063 3.097656l12.386718 21.351563h33.738282c4.714843 0 8.535156 3.820313 8.535156 8.53125 0 4.714844-3.820313 8.535156-8.535156 8.535156zm0 0"/><path d="m65.09375 264.578125c-3.042969.003906-5.859375-1.617187-7.390625-4.25l-19.796875-34.132813c-1.535156-2.652343-1.535156-5.917968 0-8.566406l19.796875-34.136718c2.367187-4.074219 7.589844-5.464844 11.667969-3.097657 4.078125 2.367188 5.464844 7.589844 3.097656 11.667969l-17.316406 29.847656 17.316406 29.851563c2.363281 4.078125.972656 9.300781-3.105469 11.664062-1.292969.757813-2.769531 1.152344-4.269531 1.152344zm0 0"/><path d="m362.984375 409.644531h-38.738281c-4.714844 0-8.535156-3.820312-8.535156-8.535156 0-4.710937 3.820312-8.53125 8.535156-8.53125h33.824218l12.378907-21.351563c2.367187-4.074218 7.589843-5.460937 11.664062-3.097656 4.078125 2.367188 5.464844 7.589844 3.097657 11.664063l-14.847657 25.601562c-1.527343 2.628907-4.335937 4.25-7.378906 4.25zm0 0"/><path d="m377.839844 76.84375c-3.042969.003906-5.863282-1.613281-7.390625-4.25l-12.378907-21.347656h-33.824218c-4.714844 0-8.535156-3.820313-8.535156-8.535156 0-4.710938 3.820312-8.535157 8.535156-8.535157h38.738281c3.042969 0 5.859375 1.621094 7.386719 4.25l14.847656 25.601563c1.53125 2.640625 1.535156 5.894531.015625 8.539062-1.523437 2.644532-4.34375 4.277344-7.394531 4.277344zm0 0"/><path d="m255.976562 366.976562c-80.117187 0-145.066406-64.949218-145.066406-145.066406 0-80.117187 64.949219-145.066406 145.066406-145.066406 80.121094 0 145.066407 64.949219 145.066407 145.066406-.085938 80.082032-64.984375 144.976563-145.066407 145.066406zm0-273.066406c-70.691406 0-128 57.308594-128 128s57.308594 128 128 128c70.695313 0 128-57.308594 128-128-.078124-70.660156-57.339843-127.921875-128-128zm0 0"/><path d="m255.976562 332.84375c-61.265624 0-110.933593-49.664062-110.933593-110.933594 0-61.265625 49.667969-110.933594 110.933593-110.933594 61.269532 0 110.933594 49.667969 110.933594 110.933594-.066406 61.238282-49.695312 110.863282-110.933594 110.933594zm0-204.800781c-51.839843 0-93.867187 42.027343-93.867187 93.867187 0 51.84375 42.027344 93.867188 93.867187 93.867188 51.84375 0 93.867188-42.023438 93.867188-93.867188-.058594-51.816406-42.050781-93.808594-93.867188-93.867187zm0 0"/></svg>