<?xml version="1.0" standalone="no"?>
<!DOCTYPE svg PUBLIC "-//W3C//DTD SVG 20010904//EN"
 "http://www.w3.org/TR/2001/REC-SVG-20010904/DTD/svg10.dtd">
<svg version="1.0" xmlns="http://www.w3.org/2000/svg"
 width="800.000000pt" height="800.000000pt" viewBox="0 0 800.000000 800.000000"
 preserveAspectRatio="xMidYMid meet">
<metadata>
Created by potrace 1.16, written by Peter Selinger 2001-2019
</metadata>
<g transform="translate(0.000000,800.000000) scale(0.100000,-0.100000)"
fill="#000000" stroke="none">
<path d="M6751 5869 l-24 -32 24 -18 c19 -14 22 -20 12 -30 -20 -20 -16 -29
12 -29 14 0 25 -3 25 -8 0 -7 37 -25 78 -37 16 -5 22 -14 22 -35 0 -21 4 -28
14 -24 8 3 21 -5 30 -18 13 -18 16 -19 16 -5 0 25 13 21 27 -9 11 -24 10 -26
-7 -21 -16 4 -17 2 -9 -20 6 -18 6 -30 -2 -39 -9 -11 -8 -14 5 -14 9 0 19 -7
22 -15 4 -8 19 -29 35 -46 35 -37 39 -57 5 -26 -35 33 -77 67 -82 67 -3 0 -30
19 -61 43 -30 23 -65 49 -77 57 -11 8 -39 32 -61 52 -31 30 -37 40 -27 50 6 6
12 17 12 23 0 5 -7 1 -15 -9 -14 -19 -15 -19 -51 0 -28 14 -38 16 -41 7 -3 -7
-12 -13 -20 -13 -11 0 -14 -6 -10 -21 4 -14 2 -19 -8 -16 -16 7 -35 -12 -35
-36 0 -10 -4 -16 -10 -12 -12 8 -50 -16 -50 -33 0 -7 -12 -17 -26 -22 -22 -9
-24 -13 -14 -25 7 -8 10 -16 6 -16 -3 -1 -10 -3 -16 -4 -5 -1 -14 -3 -20 -4
-5 0 -10 -9 -10 -19 0 -24 -19 -42 -44 -42 -17 0 -18 -2 -6 -10 15 -9 11 -12
-20 -14 -8 -1 -14 -9 -12 -19 2 -11 -6 -21 -23 -27 -14 -5 -25 -14 -25 -20 0
-5 -4 -9 -8 -8 -12 4 -102 -83 -102 -99 0 -7 -5 -13 -10 -13 -11 0 -134 -126
-352 -360 -144 -154 -226 -230 -403 -376 -149 -122 -174 -139 -206 -136 -18 2
-38 -6 -60 -26 -19 -16 -44 -32 -56 -36 -21 -7 -95 -69 -212 -180 -30 -28 -65
-58 -77 -66 -13 -9 -43 -34 -67 -57 -25 -23 -73 -66 -108 -95 -35 -29 -118
-99 -184 -157 -66 -57 -131 -113 -145 -125 -14 -12 -75 -65 -136 -118 -62 -53
-122 -102 -135 -108 -13 -7 -41 -26 -61 -42 -32 -25 -42 -28 -78 -22 -34 6
-45 3 -65 -16 -14 -13 -25 -29 -25 -36 0 -21 63 -12 82 11 16 19 16 19 44 -8
15 -15 57 -49 93 -74 36 -26 91 -68 120 -95 53 -46 81 -59 81 -38 0 20 57 10
84 -15 15 -14 43 -32 62 -40 27 -11 34 -20 34 -41 0 -24 2 -26 34 -20 20 4 37
2 41 -4 3 -5 -2 -10 -13 -10 -11 0 -22 -7 -26 -15 -4 -11 2 -15 20 -15 21 0
24 -4 20 -22 -3 -13 -3 -18 0 -12 7 17 43 5 55 -17 5 -11 20 -19 32 -19 23 0
67 -39 67 -59 0 -6 7 -11 15 -11 12 0 37 -31 40 -50 8 -44 47 -72 75 -55 6 4
21 -1 32 -12 21 -18 21 -18 9 4 -9 19 -8 25 11 43 13 12 39 31 58 43 19 12 82
62 140 112 58 49 130 110 160 135 30 24 76 64 101 88 26 24 64 55 85 69 22 15
41 29 44 32 3 3 61 55 130 115 69 60 130 115 135 121 6 6 20 18 32 26 12 8 70
60 128 114 59 55 112 103 118 107 19 11 27 -1 27 -42 0 -48 -8 -70 -26 -70 -8
0 -14 -7 -14 -15 0 -8 -10 -20 -22 -26 -33 -17 -78 -68 -67 -75 6 -3 18 1 28
10 10 9 21 16 25 16 20 0 105 83 111 108 6 26 7 26 21 8 12 -17 14 -17 14 -4
0 9 -5 20 -10 23 -15 9 -50 85 -39 85 5 0 9 7 9 15 0 9 9 15 25 15 14 0 25 6
25 13 0 8 10 19 23 25 25 14 42 24 109 70 26 17 51 32 56 32 5 0 21 14 37 30
16 17 34 30 39 30 6 0 25 14 43 30 18 17 35 30 38 30 12 0 141 108 182 153 47
51 60 85 44 115 -8 15 -7 23 4 32 14 11 13 14 -7 24 -15 8 -25 25 -31 55 -10
50 -5 58 26 43 29 -14 87 -21 93 -10 3 4 12 8 21 8 18 0 117 83 171 143 19 20
45 40 58 43 12 3 25 12 28 20 3 8 15 14 26 14 13 0 45 24 79 58 32 31 72 69
88 85 17 15 41 47 53 72 12 25 25 45 29 45 4 0 24 16 44 35 20 19 43 35 50 35
19 0 49 40 43 56 -3 8 1 14 9 14 8 0 15 5 15 10 0 6 6 10 14 10 8 0 16 7 20
15 3 8 10 15 17 15 6 0 33 21 60 47 71 68 67 87 -37 177 -143 126 -158 139
-219 190 -32 28 -66 57 -75 66 -8 8 -83 69 -165 134 -83 66 -171 137 -197 158
-26 21 -51 38 -55 38 -5 0 -20 -14 -32 -31z m22 -331 c16 -21 22 -48 25 -113
2 -47 6 -85 8 -85 1 0 23 21 48 48 l45 47 28 -17 c15 -9 28 -23 28 -31 0 -22
-175 -199 -191 -193 -29 11 -47 69 -51 175 -4 91 -8 109 -25 124 -26 22 -33
22 -59 -4 -17 -17 -20 -28 -14 -56 5 -27 2 -38 -12 -49 -42 -32 -83 1 -83 67
0 30 9 47 43 85 35 38 51 48 88 54 51 8 90 -9 122 -52z m260 -161 c4 -11 -55
-75 -351 -380 -53 -55 -91 -86 -100 -82 -7 3 -12 9 -10 14 2 4 99 106 216 226
116 120 212 222 212 227 0 13 27 9 33 -5z m-504 -29 c98 -46 181 -138 181
-200 0 -34 -56 -100 -101 -118 -82 -34 -265 92 -285 197 -8 41 18 89 66 120
42 29 81 29 139 1z m509 -88 c2 -14 8 -42 13 -62 9 -34 13 -38 42 -38 54 0
137 -12 137 -20 0 -4 -11 -18 -25 -32 -22 -22 -31 -24 -81 -20 -56 5 -57 4
-50 -19 19 -69 19 -80 -4 -104 -12 -13 -28 -21 -35 -19 -6 3 -18 36 -24 74
l-13 70 -36 1 c-46 1 -90 6 -110 14 -12 5 -11 10 8 30 19 21 33 25 77 25 29 0
53 3 53 8 0 4 -4 24 -9 44 -6 27 -5 42 6 58 19 27 47 22 51 -10z m-188 -185
c11 -13 8 -21 -16 -46 l-29 -31 50 -41 c117 -99 112 -93 91 -116 -11 -12 -24
-21 -30 -21 -6 0 -45 27 -86 60 -41 33 -78 60 -81 60 -4 0 -17 -12 -28 -26
-16 -20 -26 -25 -46 -20 -14 4 -25 12 -25 18 0 16 161 178 176 178 6 0 17 -7
24 -15z m-339 -330 c9 -44 17 -82 18 -85 1 -3 16 13 35 34 23 27 39 37 50 33
30 -12 16 -45 -44 -100 -33 -31 -60 -61 -60 -66 0 -21 -32 -11 -74 24 l-42 34
-40 -40 c-36 -37 -38 -41 -21 -53 9 -8 28 -22 42 -32 32 -24 35 -69 4 -59 -12
4 -28 14 -38 23 -9 10 -56 48 -104 86 -48 38 -87 73 -87 77 0 4 7 10 16 13 17
7 49 -7 79 -35 19 -17 21 -17 58 17 20 19 37 38 37 42 0 4 -16 18 -35 31 -37
25 -46 57 -19 68 9 3 26 -4 40 -18 l26 -24 50 58 c71 81 88 77 109 -28z m-321
-187 c73 -64 105 -89 132 -106 33 -19 44 -42 26 -54 -19 -12 -18 -12 -82 42
-32 28 -61 48 -64 46 -3 -3 14 -32 36 -65 70 -98 53 -113 -70 -61 -75 32 -108
35 -67 7 13 -10 43 -31 67 -47 23 -17 42 -35 42 -40 0 -21 -33 -8 -103 43
-137 98 -141 103 -112 127 12 10 33 4 115 -30 56 -23 104 -40 107 -36 4 3 -3
16 -14 29 -11 12 -38 48 -61 81 -33 47 -39 62 -31 77 14 27 36 23 79 -13z
m-316 -157 c17 -19 16 -21 -23 -45 -23 -15 -41 -31 -41 -36 0 -19 30 -23 48
-7 47 41 142 27 191 -28 39 -44 39 -69 2 -106 -25 -24 -38 -29 -79 -29 -59 0
-82 7 -82 26 0 20 31 32 66 27 20 -3 35 1 44 12 12 14 10 19 -11 40 -43 41
-66 41 -103 1 -18 -20 -37 -36 -43 -36 -16 0 -123 99 -123 114 0 14 100 85
121 86 9 0 24 -9 33 -19z m-136 -150 c21 -11 61 -40 90 -66 43 -39 52 -53 52
-80 0 -76 -117 -114 -179 -59 -12 10 38 33 72 34 41 0 49 19 24 55 -13 17 -14
17 -28 -2 -24 -34 -80 -49 -131 -34 -44 14 -108 71 -108 97 0 9 13 29 29 45
26 25 37 29 86 29 35 0 70 -7 93 -19z m-220 -143 c44 -35 90 -70 103 -78 12
-8 39 -29 58 -47 l36 -31 -25 -21 c-14 -11 -30 -19 -37 -16 -6 2 -46 30 -89
61 -72 54 -78 56 -91 39 -7 -11 -13 -25 -13 -32 0 -19 -34 -16 -57 5 -16 14
-19 29 -18 84 2 67 15 98 40 98 7 0 49 -28 93 -62z m-279 -153 c21 -10 31 -25
36 -52 9 -52 41 -109 91 -169 24 -28 44 -55 44 -59 0 -4 -12 -19 -26 -32 -19
-17 -30 -21 -37 -14 -6 6 -19 11 -29 11 -11 0 -23 11 -28 26 -6 14 -24 46 -41
71 -17 25 -34 56 -38 71 -8 29 -31 42 -31 17 0 -9 -9 -19 -20 -22 -11 -3 -20
-9 -20 -13 0 -5 -9 -12 -21 -15 -20 -7 -20 -7 4 -31 28 -28 48 -96 40 -136 -7
-35 1 -35 35 0 40 41 55 44 85 17 27 -25 27 -65 1 -65 -8 0 -14 -9 -14 -20 0
-13 7 -20 20 -20 22 0 27 -15 8 -26 -6 -4 -17 0 -23 10 -7 10 -19 14 -29 10
-26 -10 -81 -66 -78 -79 3 -17 -67 -2 -79 17 -18 27 -29 86 -29 155 0 69 -1
73 -24 79 -36 9 -48 -3 -40 -41 5 -30 3 -35 -25 -49 -29 -15 -32 -15 -51 4
-11 11 -22 30 -26 44 -14 59 66 132 144 130 l42 -1 -20 19 c-12 11 -20 23 -18
27 3 7 160 149 166 150 2 1 16 -6 31 -14z m-369 -436 c0 -5 -34 -49 -75 -97
-41 -48 -75 -92 -75 -98 0 -7 35 -38 78 -71 51 -39 78 -67 80 -83 l4 -24 -29
19 c-15 11 -47 29 -71 42 -24 13 -60 34 -80 48 -47 32 -58 31 -106 -5 -22 -17
-43 -30 -47 -30 -5 0 -31 -14 -60 -30 -70 -42 -95 -36 -48 10 20 19 61 55 92
80 l57 45 -72 70 c-120 115 -125 131 -22 69 87 -53 144 -84 152 -84 5 0 53 33
107 74 103 77 115 84 115 65z"/>
<path d="M6422 5274 c-12 -8 -22 -19 -22 -24 0 -16 73 -84 127 -118 43 -28 55
-31 72 -22 37 19 26 53 -31 102 -44 37 -107 78 -120 78 -2 0 -14 -7 -26 -16z"/>
<path d="M4099 5748 c-24 -23 -103 -98 -174 -167 -226 -219 -466 -428 -645
-562 -311 -232 -505 -368 -615 -429 -60 -33 -148 -102 -216 -170 -39 -39 -225
-210 -304 -279 -27 -24 -77 -69 -110 -100 -33 -31 -90 -83 -125 -115 -36 -33
-94 -87 -130 -121 -91 -85 -150 -131 -244 -190 -45 -28 -112 -75 -150 -105
-47 -38 -75 -54 -91 -52 -30 4 -65 -14 -65 -33 0 -19 17 -19 27 0 8 13 14 12
48 -6 62 -34 145 -91 247 -172 32 -25 38 -26 63 -15 25 11 29 10 46 -14 20
-27 93 -71 103 -61 3 3 10 -5 15 -19 5 -14 17 -28 25 -31 9 -4 16 -12 16 -19
0 -7 18 -23 40 -36 22 -12 40 -27 40 -33 0 -6 4 -8 9 -4 6 3 15 -4 21 -15 6
-11 17 -20 25 -20 8 0 15 -3 15 -7 0 -5 21 -21 46 -38 57 -38 78 -69 70 -105
-7 -40 16 -58 48 -37 22 15 25 14 45 -7 12 -12 20 -31 19 -42 -3 -21 82 -193
105 -213 17 -13 33 -3 82 48 15 15 29 22 40 17 12 -4 18 0 22 14 3 10 21 28
39 39 19 12 37 27 40 36 4 8 21 22 39 31 19 9 36 25 39 40 4 13 19 30 34 38
36 20 97 77 105 99 4 9 12 17 19 17 7 0 42 28 79 63 99 94 220 203 261 234 20
15 48 43 63 61 15 17 31 30 36 26 5 -3 9 0 9 6 0 6 8 14 18 17 9 4 31 21 47
37 17 17 58 56 93 86 69 60 86 85 96 144 10 53 27 76 126 179 47 49 135 140
195 203 61 63 116 114 123 114 7 0 12 7 12 15 0 8 9 19 20 25 11 6 20 17 20
25 0 8 6 15 13 15 19 0 57 43 57 63 0 9 11 24 25 33 14 9 25 24 25 34 0 13 5
17 20 13 16 -4 19 -2 14 11 -4 10 -1 16 7 16 13 0 100 92 93 99 -2 2 -21 -8
-41 -22 -21 -14 -65 -44 -98 -66 -33 -22 -67 -47 -76 -56 -17 -16 -39 -20 -39
-7 0 11 76 72 89 72 5 0 11 4 13 9 3 9 104 91 111 91 3 0 33 27 68 60 35 33
68 60 75 60 6 0 14 9 17 20 3 11 13 20 24 20 10 1 28 6 40 13 29 16 215 189
396 368 189 187 188 168 17 302 -8 7 -52 39 -98 72 -151 108 -178 129 -364
269 -100 77 -188 143 -194 147 -6 5 -28 -9 -55 -33z m-11 -288 c41 -25 54 -57
61 -148 l6 -73 50 45 c28 25 53 46 56 46 4 0 18 -9 33 -21 l26 -20 -58 -53
c-119 -110 -137 -126 -145 -126 -4 0 -16 15 -27 33 -16 26 -20 50 -20 122 0
101 -14 135 -55 135 -37 0 -58 -27 -51 -65 5 -27 2 -35 -18 -49 -30 -19 -49
-13 -65 20 -15 33 -14 39 6 81 20 43 94 93 137 93 17 0 46 -9 64 -20z m292
-183 c0 -17 -76 -89 -250 -237 -80 -68 -155 -132 -168 -144 -15 -13 -26 -16
-32 -10 -7 7 39 53 142 142 208 179 258 225 258 239 0 10 15 18 43 22 4 0 7
-5 7 -12z m-483 -29 c25 -11 70 -43 99 -72 56 -54 68 -91 44 -136 -16 -31 -74
-60 -119 -60 -112 0 -279 149 -243 217 16 29 57 63 88 73 35 10 72 4 131 -22z
m482 -95 c6 -21 11 -43 11 -50 0 -22 38 -33 95 -30 62 4 75 -5 49 -34 -13 -14
-30 -19 -72 -19 l-55 0 7 -46 c6 -45 4 -48 -31 -80 -35 -31 -43 -33 -109 -34
-45 0 -77 -5 -90 -14 -18 -14 -18 -16 16 -44 30 -26 33 -32 21 -46 -7 -9 -19
-16 -26 -16 -16 0 -185 128 -185 141 0 11 57 63 106 97 64 43 145 17 130 -43
-6 -25 -6 -25 54 -25 35 0 60 4 60 11 0 28 -24 99 -34 101 -31 4 -54 6 -88 7
-26 1 -38 6 -38 16 0 22 36 37 83 34 l42 -3 -3 43 c-5 73 39 99 57 34z m-552
-355 c6 -7 16 -41 24 -75 7 -35 16 -63 19 -63 4 0 17 11 30 25 23 25 54 33 64
17 7 -12 -3 -22 -72 -75 l-64 -48 -50 35 -51 35 -38 -27 c-21 -15 -39 -30 -39
-34 0 -4 18 -19 40 -35 39 -28 54 -58 25 -51 -20 4 -215 148 -215 159 0 17 31
9 64 -16 41 -31 49 -31 91 2 l35 28 -43 37 c-34 30 -39 37 -25 43 10 4 29 -2
48 -17 30 -22 32 -22 44 -6 16 21 86 78 96 78 4 0 12 -6 17 -12z m-248 -235
c56 -42 101 -80 101 -85 0 -19 -30 -5 -89 43 -35 28 -65 48 -68 45 -3 -3 16
-31 41 -64 25 -32 46 -64 46 -70 0 -21 -40 -13 -117 24 -41 19 -79 34 -84 32
-5 -2 23 -25 61 -51 67 -46 85 -67 58 -67 -7 0 -42 21 -78 46 -36 25 -80 55
-97 67 -39 26 -44 57 -10 57 12 0 58 -16 102 -36 44 -20 89 -38 100 -42 23 -6
23 -7 -54 92 -40 51 -49 86 -22 86 5 0 55 -34 110 -77z m-377 -60 c25 -22 23
-28 -17 -53 -36 -22 -47 -50 -20 -50 9 0 27 7 40 16 38 25 124 15 169 -20 29
-22 36 -34 36 -62 0 -28 -6 -38 -32 -54 -49 -30 -148 -26 -148 5 0 17 34 28
60 20 23 -7 50 10 50 31 0 15 -56 54 -78 54 -7 0 -26 -14 -42 -31 -37 -41 -60
-35 -124 30 l-48 49 63 41 c35 22 66 41 68 41 3 0 13 -7 23 -17z m-79 -180
c38 -26 76 -60 85 -74 40 -68 -40 -128 -135 -103 -25 7 -30 28 -11 41 7 4 29
7 48 8 41 0 54 30 24 52 -16 12 -21 11 -36 -9 -14 -20 -26 -23 -80 -23 -68 1
-104 17 -133 61 -20 31 -10 70 24 90 18 10 44 13 85 10 51 -4 69 -11 129 -53z
m-285 -94 c31 -22 80 -55 107 -74 28 -19 63 -45 80 -58 30 -25 30 -25 11 -46
-11 -12 -25 -21 -33 -21 -13 0 -61 27 -73 40 -18 21 -110 68 -115 59 -10 -15
2 -39 18 -39 18 0 42 -28 33 -37 -4 -4 -16 3 -28 14 -17 17 -25 19 -43 11 -38
-17 -96 48 -68 76 4 4 6 27 4 51 -1 25 0 49 4 55 12 20 46 10 103 -31z m942
-100 c-125 -98 -206 -199 -254 -318 -14 -35 -39 -85 -56 -112 -16 -27 -30 -54
-30 -60 0 -12 -38 -49 -50 -49 -4 0 -36 -27 -71 -60 -75 -71 -92 -86 -224
-204 -120 -107 -260 -233 -292 -263 -13 -13 -28 -23 -33 -23 -4 0 -10 -4 -12
-9 -1 -5 -23 -25 -48 -46 -100 -82 -217 -204 -264 -272 -16 -24 -31 -43 -35
-43 -3 0 -21 -23 -40 -50 -35 -51 -64 -67 -54 -30 3 12 -1 28 -10 38 -8 9 -22
39 -31 66 -9 27 -34 69 -55 93 -38 42 -39 45 -24 73 8 17 19 30 24 30 13 0
165 115 205 154 17 17 74 69 128 116 135 117 140 121 236 203 47 39 87 74 90
77 3 3 61 57 130 120 69 63 169 156 222 207 53 51 104 93 113 93 17 0 55 -56
55 -82 0 -9 -30 -40 -67 -69 -136 -107 -217 -184 -208 -199 10 -16 -12 -38
-62 -61 -24 -11 -67 -41 -97 -67 -29 -26 -66 -58 -82 -72 -158 -135 -187 -160
-335 -295 -30 -27 -86 -78 -124 -111 -126 -111 -149 -134 -141 -141 4 -5 18 4
30 20 12 15 25 27 30 27 4 0 29 18 55 40 26 22 52 40 58 40 7 0 14 8 18 19 3
10 14 22 24 27 10 5 45 32 77 61 94 83 194 164 262 213 35 25 90 68 123 95 58
48 112 91 173 138 16 12 39 31 50 43 12 11 67 60 123 108 117 99 135 120 127
153 -4 14 -2 23 5 23 6 0 11 -12 12 -27 0 -30 18 3 88 162 17 38 36 76 44 85
17 19 94 82 116 94 9 5 34 24 55 43 22 18 42 30 45 27 3 -3 -5 -15 -19 -25z
m-1186 -80 c14 -11 26 -30 26 -41 0 -33 41 -107 88 -159 23 -26 42 -53 42 -60
0 -19 -31 -49 -50 -49 -35 0 -149 140 -150 183 0 11 -6 17 -12 14 -7 -2 -13
-14 -12 -26 0 -15 -4 -20 -14 -16 -8 3 -26 -2 -39 -10 l-23 -16 26 -35 c22
-28 28 -47 28 -90 1 -30 6 -54 11 -54 13 0 45 36 45 50 0 15 52 12 73 -4 9 -7
17 -22 17 -32 0 -23 -155 -169 -179 -169 -31 0 -61 63 -62 134 -3 91 -3 94
-12 109 -10 14 -53 16 -62 2 -3 -5 -1 -19 5 -31 24 -43 -42 -78 -82 -42 -28
25 -21 82 17 119 19 20 93 54 116 54 18 0 19 3 9 15 -6 8 -10 19 -8 24 4 13
158 151 168 151 4 0 19 -9 34 -21z m-384 -440 c0 -6 -31 -49 -70 -95 -38 -45
-70 -86 -69 -91 0 -4 20 -24 45 -43 25 -19 54 -43 64 -52 11 -10 22 -18 24
-18 3 0 22 -16 43 -35 32 -29 35 -35 19 -41 -20 -8 -27 -5 -197 98 l-62 38
-35 -22 c-59 -36 -174 -89 -186 -85 -6 2 4 17 22 33 19 16 56 49 84 74 l50 45
-87 83 c-84 79 -105 115 -47 80 15 -9 64 -37 109 -62 l83 -46 97 75 c100 76
113 83 113 64z"/>
<path d="M3766 5197 c-15 -11 -17 -17 -7 -35 14 -27 112 -100 152 -114 33 -12
59 2 59 32 0 26 -140 130 -176 130 -5 0 -18 -6 -28 -13z"/>
<path d="M6967 4528 c-162 -161 -307 -311 -323 -333 -16 -22 -31 -42 -34 -45
-17 -17 -82 -104 -113 -150 -30 -47 -71 -105 -153 -218 -9 -12 -14 -25 -11
-29 6 -6 73 61 117 117 30 39 72 80 81 80 13 0 69 55 69 67 0 7 4 13 9 13 5 0
63 53 130 118 228 223 290 281 311 292 11 6 20 19 20 30 0 10 4 20 9 22 25 8
155 145 167 175 8 18 24 43 35 54 18 18 19 25 10 45 -6 13 -8 31 -5 39 20 51
-59 -18 -319 -277z"/>
<path d="M6174 3618 c-20 -18 -54 -50 -75 -70 -21 -21 -47 -38 -57 -38 -10 0
-28 -10 -39 -22 -12 -13 -41 -40 -66 -61 -25 -21 -78 -70 -119 -109 -40 -39
-96 -88 -124 -110 -28 -21 -80 -66 -115 -101 -36 -34 -94 -86 -129 -116 -36
-30 -83 -71 -105 -92 -22 -21 -54 -50 -71 -66 -17 -15 -66 -59 -109 -98 -42
-38 -83 -83 -91 -98 -8 -15 -27 -32 -41 -38 -20 -7 -23 -13 -15 -21 16 -16 15
-28 -3 -28 -8 0 -15 8 -15 17 0 14 -2 15 -12 4 -10 -11 -10 -14 0 -18 13 -5
17 -33 5 -33 -5 0 -13 -11 -20 -25 -6 -14 -7 -25 -3 -25 8 0 105 88 216 197
35 34 72 64 82 67 10 4 31 22 46 41 16 19 37 35 47 35 10 0 19 7 19 15 0 8 6
15 14 15 8 0 24 16 36 36 13 19 40 46 62 60 21 14 41 31 45 39 3 8 9 15 15 15
5 0 52 43 104 95 53 52 102 95 110 95 8 0 13 3 12 8 -4 14 27 52 44 52 10 0
35 24 58 53 22 30 51 59 64 67 13 7 37 29 52 49 15 20 66 74 113 122 93 92
117 119 107 119 -4 0 -23 -15 -42 -32z"/>
<path d="M5470 3170 c-41 -38 -77 -70 -80 -70 -3 0 -35 -28 -71 -63 -37 -34
-90 -82 -119 -107 -76 -65 -180 -159 -216 -194 -16 -17 -47 -42 -67 -56 -20
-14 -37 -31 -37 -39 0 -11 6 -9 23 5 12 10 24 22 27 25 3 3 43 37 90 74 95 77
140 120 140 135 0 5 7 10 15 10 8 0 20 9 27 20 7 11 21 20 31 20 11 0 21 9 24
20 3 11 11 20 19 20 7 0 21 11 30 25 9 14 23 25 30 25 8 0 14 6 14 13 0 7 8
17 19 22 29 15 121 87 176 138 47 43 48 46 25 47 -18 0 -47 -20 -100 -70z"/>
<path d="M1345 3089 c-22 -23 -141 -132 -265 -242 -124 -110 -226 -204 -228
-208 -11 -29 69 20 118 71 3 3 43 39 90 80 122 107 175 156 257 234 51 48 77
67 89 62 33 -13 9 -66 -59 -131 -65 -63 -221 -205 -272 -248 -16 -14 -27 -29
-23 -33 5 -4 34 17 66 47 32 30 82 74 111 99 30 25 66 55 80 68 14 12 41 32
59 43 17 11 32 25 32 30 0 21 39 6 80 -32 60 -55 180 -132 208 -134 12 0 36
-16 53 -34 16 -18 33 -30 36 -27 4 3 1 12 -5 18 -7 7 -12 20 -12 30 0 10 -4
18 -10 18 -5 0 -10 5 -10 10 0 6 10 10 23 10 31 1 73 25 58 34 -6 4 -15 4 -21
1 -21 -13 -31 7 -14 26 16 18 16 19 -2 19 -10 0 -30 -9 -44 -20 -35 -27 -77
-25 -141 8 -49 25 -57 33 -90 102 -32 67 -94 140 -117 140 -5 0 -26 -19 -47
-41z"/>
<path d="M3957 3069 c-3 -12 -1 -31 5 -44 9 -20 6 -28 -23 -57 -39 -38 -154
-140 -314 -278 -150 -129 -191 -168 -183 -175 13 -13 83 40 228 175 9 8 63 56
120 105 57 50 129 114 159 142 54 51 91 67 91 40 0 -25 -29 -73 -62 -102 -114
-100 -227 -210 -219 -213 5 -2 65 44 132 102 70 60 132 106 144 106 11 0 53
-31 95 -70 41 -38 78 -70 81 -70 4 0 24 -16 45 -35 46 -43 58 -44 49 -5 -4 20
-3 30 5 30 15 0 112 -100 108 -110 -3 -7 -259 -235 -426 -379 -53 -46 -77 -81
-56 -81 11 0 69 45 129 100 34 30 77 69 97 85 86 72 305 264 322 284 11 11 25
21 33 21 20 0 15 -30 -12 -79 -29 -50 -21 -76 15 -53 26 16 25 17 44 -23 16
-34 106 -105 133 -105 16 0 28 59 14 73 -6 6 -11 20 -11 30 0 13 -5 17 -15 13
-11 -4 -15 2 -15 20 0 14 -9 39 -21 55 -19 27 -19 49 1 49 9 0 41 -52 40 -65
-1 -38 1 -49 9 -36 5 7 5 28 1 47 -5 19 -6 43 -3 53 7 28 -42 59 -68 43 -14
-9 -25 -9 -39 -2 -12 7 -21 7 -25 0 -9 -14 -25 -12 -25 3 0 7 -13 26 -29 41
-41 39 -61 29 -61 -29 0 -25 -4 -45 -10 -45 -5 0 -10 7 -10 15 0 9 -11 21 -25
27 -25 11 -44 52 -31 66 4 3 15 1 26 -5 14 -10 21 -9 30 2 16 19 54 19 70 0
16 -19 30 -19 30 -1 0 17 -71 82 -100 91 -15 5 -31 1 -51 -14 -37 -28 -71 -27
-119 4 -22 14 -43 25 -48 25 -13 0 -52 44 -52 59 0 44 -143 191 -186 191 -7 0
-14 -9 -17 -21z"/>
<path d="M1770 2800 c0 -5 4 -10 10 -10 5 0 16 -12 24 -27 13 -25 12 -30 -11
-60 -14 -18 -118 -115 -232 -216 -225 -201 -241 -217 -219 -217 18 0 51 23
109 74 25 23 79 71 120 107 114 101 148 132 229 208 41 39 80 71 87 71 36 0
19 -71 -27 -115 -42 -40 -37 -50 10 -20 l41 26 32 -23 c18 -12 42 -31 54 -42
34 -29 103 -68 103 -58 0 4 -6 17 -14 27 -8 11 -11 26 -8 34 3 9 1 12 -6 7 -8
-5 -12 4 -12 27 0 44 -29 61 -31 19 -1 -21 -4 -18 -14 18 -10 37 -10 48 1 59
10 11 16 12 27 3 16 -14 27 -6 27 20 0 15 -8 18 -54 18 -47 0 -59 5 -104 40
-42 34 -57 40 -96 40 -25 0 -46 -4 -46 -10z"/>
<path d="M2110 2720 c-21 -89 10 -252 51 -265 28 -9 59 4 57 23 -2 9 1 36 6
59 7 38 4 51 -29 115 -20 40 -44 84 -54 97 l-18 24 -13 -53z"/>
</g>
</svg>
